<svg xmlns="http://www.w3.org/2000/svg" viewBox="0 0 1600 900" role="img" aria-label="Layered cascade bands">
  <defs>
    <linearGradient id="cas-sky" x1="0" y1="0" x2="1" y2="1">
      <stop offset="0" stop-color="#0f0f0f" />
      <stop offset="1" stop-color="#2f343b" />
    </linearGradient>
    <linearGradient id="cas-band" x1="0" y1="0" x2="1" y2="0">
      <stop offset="0" stop-color="#f4f3f0" stop-opacity="0.15" />
      <stop offset="1" stop-color="#f4f3f0" stop-opacity="0.45" />
    </linearGradient>
  </defs>
  <rect width="1600" height="900" fill="url(#cas-sky)" />
  <g fill="url(#cas-band)">
    <path d="M0 140 C300 60, 700 220, 1100 140 S1500 220, 1600 160 L1600 260 L0 260 Z" />
    <path d="M0 320 C260 260, 680 420, 1120 320 S1500 420, 1600 360 L1600 460 L0 460 Z" />
    <path d="M0 500 C240 440, 700 600, 1140 500 S1520 600, 1600 540 L1600 640 L0 640 Z" />
    <path d="M0 680 C280 620, 720 780, 1160 680 S1500 780, 1600 720 L1600 820 L0 820 Z" />
  </g>
  <g stroke="#fdfcfb" stroke-opacity="0.2" stroke-width="2">
    <line x1="120" y1="110" x2="520" y2="190" />
    <line x1="580" y1="310" x2="980" y2="390" />
    <line x1="640" y1="510" x2="1040" y2="590" />
    <line x1="700" y1="690" x2="1100" y2="770" />
  </g>
</svg>
